<svg viewBox="0 0 13.1298 13.1306" xmlns="http://www.w3.org/2000/svg" xmlns:xlink="http://www.w3.org/1999/xlink" width="13.129822" height="13.130595" fill="none" customFrame="#000000">
	<path id="Vector" d="M12.8531 11.5274C13.0292 11.7035 13.1282 11.9424 13.1282 12.1915C13.1282 12.4405 13.0292 12.6794 12.8531 12.8555C12.677 13.0317 12.4381 13.1306 12.1891 13.1306C11.94 13.1306 11.7011 13.0317 11.525 12.8555L6.56485 7.89381L1.60313 12.854C1.42701 13.0301 1.18814 13.129 0.939065 13.129C0.689993 13.129 0.451123 13.0301 0.275003 12.854C0.0988824 12.6778 -6.10314e-05 12.439 -6.10352e-05 12.1899C-6.10389e-05 11.9408 0.0988825 11.702 0.275003 11.5258L5.23672 6.56569L0.276565 1.60397C0.100445 1.42785 0.0015015 1.18898 0.0015015 0.939907C0.0015015 0.690836 0.100445 0.451965 0.276565 0.275845C0.452685 0.0997246 0.691556 0.000781121 0.940627 0.000781119C1.1897 0.000781116 1.42857 0.0997246 1.60469 0.275845L6.56485 5.23756L11.5266 0.275063C11.7027 0.0989432 11.9416 -4.14954e-09 12.1906 0C12.4397 4.14954e-09 12.6786 0.0989432 12.8547 0.275063C13.0308 0.451184 13.1298 0.690054 13.1298 0.939126C13.1298 1.1882 13.0308 1.42707 12.8547 1.60319L7.89297 6.56569L12.8531 11.5274Z" fill="rgb(255,255,255)" fill-rule="nonzero" />
</svg>
